<svg width="375" height="49" viewBox="0 0 375 49" xmlns="http://www.w3.org/2000/svg">
    <g fill="none" fill-rule="evenodd">
        <path d="M0 0h375v44H0z"/>
        <path d="M70 48.5h305v1H70z" fill="#BCBBC1"/>
        <path d="M352.274 15 351 16.232l5.45 5.268-5.45 5.268L352.274 28 359 21.5z" fill="#C8C7CC" fill-rule="nonzero"/>
        <text font-family="Helvetica" font-size="17" letter-spacing="-.41" fill="#000">
                    <tspan x="70" y="28">Body Measurements</tspan>
                </text>
        <path d="M19.508 17a1.5 1.5 0 1 1 0-3h21.984a1.5 1.5 0 0 1 1.502 1.363L43 15.5a1.5 1.5 0 0 1-1.508 1.5H33.92s-.834 1.862-.834 3.836c0 .79.454 2.835 1 5.007l.15.594.155.596c.747 2.872 1.537 5.605 1.537 5.605a1.886 1.886 0 0 1-1.122 2.271l-.098.035-.12.016a2.01 2.01 0 0 1-2.125-1.49l-1.97-7.625c-.275-1.068-.721-1.069-.996.001l-1.96 7.629a2.009 2.009 0 0 1-2.124 1.485l-.12-.016-.097-.035a1.886 1.886 0 0 1-1.122-2.271s.79-2.733 1.537-5.605l.154-.596.15-.594c.547-2.172 1.001-4.218 1.001-5.007 0-1.974-.834-3.836-.834-3.836h-6.573zM30 7a3 3 0 1 1 0 6 3 3 0 0 1 0-6z" fill="#FFD426"/>
    </g>
</svg>
