<svg width="19" height="27" viewBox="0 0 19 27" xmlns="http://www.w3.org/2000/svg">
    <g fill="none" fill-rule="evenodd">
        <path d="M13.753 0c.274 0 .497.231.497.495l-.001.704h2.754C18.106 1.2 19 2.096 19 3.197v21.194c0 1.104-.89 1.998-1.997 1.998H1.997A1.999 1.999 0 0 1 0 24.39V3.197C0 2.094.89 1.2 1.997 1.2H4.75V.495c0-.273.216-.495.497-.495h8.506zM4.75 3.598H3.377a.996.996 0 0 0-1.002.998v18.397c0 .552.449.997 1.002.997h12.246a.996.996 0 0 0 1.002-.997V4.596a.999.999 0 0 0-1.002-.998h-1.374l.001.705a.492.492 0 0 1-.497.495H5.247a.503.503 0 0 1-.497-.495v-.705z" fill="#8B8B90"/>
        <path d="m4.167 15.937 1.797-2.17-.97-.204 1.599 5.027a.562.562 0 0 0 1.09-.029l2.207-8.298-1.091.023 1.818 5.905a.56.56 0 0 0 1.033.121l1.56-2.773-.967.025 1.488 2.374a.553.553 0 0 0 .79.17.62.62 0 0 0 .162-.832l-1.488-2.374a.555.555 0 0 0-.967.025l-1.56 2.773 1.034.12-1.818-5.905a.563.563 0 0 0-1.092.024l-2.208 8.298 1.09-.029-1.599-5.027c-.14-.44-.681-.554-.97-.204l-1.798 2.17a.623.623 0 0 0 .055.848.55.55 0 0 0 .805-.058z" fill="#E1289B" fill-rule="nonzero"/>
    </g>
</svg>
