<svg width="25" height="23" viewBox="0 0 25 23" xmlns="http://www.w3.org/2000/svg">
    <defs>
        <linearGradient x1="89.265%" y1="20.743%" x2="26.845%" y2="60.667%" id="a">
            <stop stop-color="#F43426" stop-opacity="0" offset="0%"/>
            <stop stop-color="#F43426" offset="100%"/>
        </linearGradient>
    </defs>
    <g fill="none" fill-rule="evenodd">
        <path d="M21.474 1.175c-3.81-2.263-7.136-.66-8.918.987C10.718.49 7.298-1.158 3.48 1.107 1.443 2.316.252 4.262.035 6.732c-.168 1.916.277 4.05 1.222 5.855 2.896 5.536 10.513 9.464 10.835 9.628l.475.242.474-.243c.106-.055 1.726-.892 3.734-2.314a9.34 9.34 0 0 0-1.14-1.751 35.2 35.2 0 0 1-3.071 1.954c-1.667-.927-7.257-4.268-9.461-8.481-1.263-2.414-1.921-6.728 1.44-8.723 4.048-2.4 7.081 1.279 7.206 1.433l.827 1.033.814-1.044c.12-.154 2.99-3.747 7.021-1.355 2.715 1.61 2.615 4.558 2.314 6.172a1.042 1.042 0 0 0 2.048.381c.682-3.654-.52-6.697-3.299-8.344" fill="#F43426"/>
        <path d="M19.254 15.17c-1.726 1.71-3.707 3.093-5.12 3.98.415.565.884 1.102 1.398 1.586 1.477-.948 3.432-2.346 5.188-4.085a1.042 1.042 0 0 0 .007-1.474 1.037 1.037 0 0 0-.74-.31c-.265 0-.53.101-.733.304" fill="url(#a)"/>
    </g>
</svg>
